<svg width="480" height="480" viewBox="0 0 480 480" fill="none" xmlns="http://www.w3.org/2000/svg">
<g filter="url(#filter0_i_2_7)">
<path d="M187.576 283.511C194.464 277.466 200.69 270.147 206.254 261.556C211.818 252.647 216.454 248.192 220.163 248.192C224.137 248.192 226.124 255.192 226.124 269.193C226.124 282.875 222.812 295.921 216.189 308.331C209.831 320.422 201.353 330.604 190.755 338.877C169.03 356.06 143.331 364.651 113.658 364.651C77.6267 364.651 49.6758 353.833 29.8055 332.195C9.93516 310.558 0 280.489 0 241.987C0 194.576 9.53775 149.552 28.6133 106.913C34.9718 92.9129 42.1251 80.026 50.0732 68.2528C43.9796 59.6615 39.0783 50.7521 35.3692 41.5244C31.925 31.9786 30.2029 24.8192 30.2029 20.0463C30.2029 11.455 32.8523 7.15937 38.151 7.15937C41.8601 7.47758 46.0991 10.5004 50.868 16.2279L63.1876 30.5467C66.3669 34.365 69.6786 37.547 73.1228 40.0925C99.3516 13.3642 127.567 0 157.77 0C188.238 0 207.976 10.1822 216.984 30.5467C220.163 38.1834 221.753 47.5701 221.753 58.7069C221.753 75.5712 215.659 89.7309 203.472 101.186C191.285 112.641 174.859 118.368 154.194 118.368C133.793 118.368 112.598 113.277 90.6086 103.095C71.7981 141.597 62.3928 181.848 62.3928 223.85C62.3928 282.08 81.7332 311.194 120.414 311.194C144.258 311.194 166.646 301.967 187.576 283.511ZM109.684 73.503C123.196 78.9123 137.9 81.6169 153.796 81.6169C169.693 81.6169 177.641 76.3667 177.641 65.8663C177.641 53.4567 171.15 47.2519 158.168 47.2519C140.417 47.2519 124.256 56.0023 109.684 73.503Z" fill="#D74D4D"/>
</g>
<g filter="url(#filter1_i_2_7)">
<path d="M276.642 451.664C276.642 470.555 261.387 480 230.876 480C224.244 480 220.264 475.998 218.938 467.993C217.876 459.668 217.346 448.462 217.346 434.374C217.346 406.838 223.315 366.014 235.254 311.903C247.193 257.792 259.264 214.407 271.468 181.748C243.081 182.389 221.856 189.113 207.795 201.92C203.55 205.762 200.101 209.284 197.448 212.486C194.795 215.368 192.407 216.808 190.284 216.808C188.427 216.808 186.57 215.047 184.713 211.525C182.856 207.683 181.927 203.201 181.927 198.078C181.927 180.468 188.427 166.86 201.427 157.254C219.999 143.806 246.397 134.841 280.622 130.359C295.744 128.438 309.54 127.477 322.009 127.477H322.805C324.663 127.477 327.183 128.758 330.367 131.319C333.816 133.881 335.54 138.043 335.54 143.806C335.54 149.57 334.612 156.134 332.754 163.498C331.163 170.542 328.907 175.825 325.989 179.347C324.397 194.716 320.948 213.126 315.642 234.579C310.336 256.031 304.764 278.924 298.928 303.258C284.071 366.014 276.642 415.483 276.642 451.664ZM473.235 359.451C477.745 359.451 480 366.815 480 381.543C480 389.548 477.214 399.314 471.643 410.84C466.071 422.047 458.775 432.453 449.755 442.058C441 451.344 431.183 459.028 420.306 465.111C409.428 471.195 399.081 474.237 389.265 474.237C379.449 474.237 371.755 471.995 366.183 467.513C360.612 463.03 356.234 456.947 353.05 449.262C348.54 438.376 344.826 417.724 341.908 387.307C338.989 356.569 336.071 335.117 333.152 322.95C326.254 321.349 320.152 318.147 314.846 313.344C309.805 308.221 307.285 302.138 307.285 295.094C307.285 287.729 309.938 282.446 315.244 279.244C320.816 276.043 327.05 274.442 333.948 274.442C340.846 274.442 346.948 276.363 352.255 280.205C366.581 261.634 379.581 237.3 391.255 207.203C396.561 193.435 401.602 179.347 406.377 164.939C411.418 150.21 416.592 135.161 421.898 119.793C423.224 115.95 426.01 113.709 430.255 113.069C434.765 112.108 440.602 111.628 447.765 111.628C454.928 111.628 459.969 114.51 462.888 120.273C465.806 125.716 467.265 134.841 467.265 147.649C467.265 160.136 464.48 174.544 458.908 190.874C453.337 207.203 446.173 223.052 437.418 238.421C419.112 270.76 398.02 295.094 374.142 311.423C378.387 321.989 381.836 333.676 384.489 346.483C387.142 358.97 389.663 370.657 392.051 381.543C394.438 392.109 397.091 401.075 400.01 408.439C403.194 415.483 407.04 419.005 411.551 419.005C416.061 419.005 421.367 415.963 427.469 409.88C433.837 403.476 440.071 396.592 446.173 389.228C452.275 381.864 457.714 375.14 462.49 369.056C467.531 362.652 471.112 359.451 473.235 359.451Z" fill="#7D1E1E"/>
</g>
<defs>
<filter id="filter0_i_2_7" x="0" y="0" width="226.124" height="368.651" filterUnits="userSpaceOnUse" color-interpolation-filters="sRGB">
<feFlood flood-opacity="0" result="BackgroundImageFix"/>
<feBlend mode="normal" in="SourceGraphic" in2="BackgroundImageFix" result="shape"/>
<feColorMatrix in="SourceAlpha" type="matrix" values="0 0 0 0 0 0 0 0 0 0 0 0 0 0 0 0 0 0 127 0" result="hardAlpha"/>
<feOffset dy="4"/>
<feGaussianBlur stdDeviation="2"/>
<feComposite in2="hardAlpha" operator="arithmetic" k2="-1" k3="1"/>
<feColorMatrix type="matrix" values="0 0 0 0 0 0 0 0 0 0 0 0 0 0 0 0 0 0 0.25 0"/>
<feBlend mode="normal" in2="shape" result="effect1_innerShadow_2_7"/>
</filter>
<filter id="filter1_i_2_7" x="181.927" y="111.628" width="298.073" height="372.372" filterUnits="userSpaceOnUse" color-interpolation-filters="sRGB">
<feFlood flood-opacity="0" result="BackgroundImageFix"/>
<feBlend mode="normal" in="SourceGraphic" in2="BackgroundImageFix" result="shape"/>
<feColorMatrix in="SourceAlpha" type="matrix" values="0 0 0 0 0 0 0 0 0 0 0 0 0 0 0 0 0 0 127 0" result="hardAlpha"/>
<feOffset dy="4"/>
<feGaussianBlur stdDeviation="2"/>
<feComposite in2="hardAlpha" operator="arithmetic" k2="-1" k3="1"/>
<feColorMatrix type="matrix" values="0 0 0 0 0 0 0 0 0 0 0 0 0 0 0 0 0 0 0.25 0"/>
<feBlend mode="normal" in2="shape" result="effect1_innerShadow_2_7"/>
</filter>
</defs>
</svg>
